<svg xmlns="http://www.w3.org/2000/svg" id="Capa_1" data-name="Capa 1" viewBox="356.6 206.08 1169.13 598.8">
  <g fill="#875E53">
    <g>
      <path d="m843.48,798.76c-39.41,0-77.63-7.72-113.62-22.94-34.76-14.7-65.98-35.75-92.78-62.56-26.81-26.81-47.85-58.02-62.56-92.78-15.22-35.99-22.94-74.21-22.94-113.62,0-43.03,9.15-84.47,27.18-123.17,8.65-18.55,19.31-36.26,31.68-52.64,12.28-16.26,26.32-31.28,41.71-44.65l.57.65c-63.72,55.35-100.27,135.47-100.27,219.8,0,160.48,130.56,291.04,291.04,291.04s291.04-130.56,291.04-291.04c0-84.55-36.7-164.79-100.69-220.16l.57-.65c15.45,13.37,29.54,28.4,41.87,44.68,12.43,16.4,23.13,34.14,31.81,52.72,18.11,38.77,27.3,80.29,27.3,123.42,0,39.41-7.72,77.63-22.94,113.62-14.7,34.76-35.75,65.98-62.56,92.78-26.81,26.81-58.02,47.85-92.78,62.56-35.99,15.22-74.21,22.94-113.62,22.94Z"></path>
      <path d="m843.48,800.76c-39.68,0-78.17-7.77-114.4-23.1-35-14.8-66.43-35.99-93.42-62.98-26.99-26.99-48.18-58.42-62.98-93.42-15.33-36.24-23.1-74.73-23.1-114.4,0-43.32,9.21-85.05,27.37-124.01,8.71-18.68,19.44-36.52,31.9-53.01,12.37-16.37,26.49-31.49,41.99-44.95l1.51-1.31,3.19,3.67-1.51,1.31c-63.29,54.97-99.58,134.54-99.58,218.29,0,159.38,129.66,289.04,289.04,289.04s289.04-129.66,289.04-289.04c0-83.97-36.45-163.66-100-218.65l-1.51-1.31,3.18-3.68,1.51,1.31c15.56,13.46,29.74,28.59,42.16,44.98,12.51,16.51,23.29,34.37,32.03,53.08,18.24,39.04,27.49,80.85,27.49,124.27,0,39.68-7.77,78.17-23.1,114.4-14.8,35-36,66.43-62.98,93.42-26.99,26.99-58.42,48.18-93.42,62.98-36.24,15.33-74.72,23.1-114.4,23.1Z"></path>
    </g>
    <g>
      <path d="m809.79,757.82c-.97.54-1.54,1.43-1.69,2.68-.09.74.04,1.34.4,1.78.36.44.9.7,1.62.79.55.07,1.09-.01,1.62-.25.53-.23.97-.58,1.32-1.03.35-.46.56-.96.63-1.51l.37-2.99c-1.87-.18-3.29,0-4.26.53Z"></path>
      <path d="m767.74,748.52c-1.05.37-1.76,1.15-2.12,2.35-.22.72-.19,1.32.09,1.82.28.5.77.85,1.46,1.06.53.16,1.08.17,1.64.03.56-.14,1.05-.41,1.47-.8.42-.39.71-.85.87-1.39l.87-2.88c-1.81-.5-3.24-.56-4.29-.2Z"></path>
      <path d="m857.98,759.63c-.86.71-1.24,1.69-1.16,2.95.05.75.29,1.31.73,1.67.44.37,1.02.52,1.74.48.56-.04,1.07-.22,1.55-.55.47-.33.84-.75,1.1-1.26.26-.51.37-1.05.33-1.6l-.2-3c-1.87.17-3.23.61-4.08,1.32Z"></path>
      <path d="m956.87,728.22c-.66-1.32-1.37-2.19-2.13-2.6s-1.6-.39-2.52.06c-.67.34-1.13.86-1.37,1.58-.24.72-.26,1.6-.05,2.63.21,1.03.63,2.17,1.25,3.41,1.06,2.13,2.09,3.61,3.08,4.42.99.82,1.98.98,2.96.49.46-.23.87-.58,1.21-1.04.34-.46.55-1.01.63-1.65.07-.64-.05-1.27-.36-1.9l-2.7-5.4Z"></path>
      <path d="m730.06,724.83c.04-1.01-.36-1.74-1.21-2.19-.82-.44-1.7-.37-2.63.2s-1.86,1.62-2.8,3.13l5.33,2.84c.83-1.65,1.27-2.98,1.31-3.99Z"></path>
      <polygon points="908.19 749.36 914.46 747.57 908.87 738.55 908.19 749.36"></polygon>
      <path d="m594.73,547.43c.75.33,1.82.39,3.22.17,1.47-.23,2.56-.61,3.26-1.16.7-.54.99-1.25.86-2.12-.14-.89-.58-1.49-1.33-1.8-.75-.32-1.84-.37-3.26-.15-1.51.23-2.59.62-3.26,1.15s-.93,1.26-.79,2.17c.13.82.57,1.4,1.31,1.73Z"></path>
      <path d="m689.43,698.24c-.58-.11-1.16-.07-1.75.12-.59.19-1.07.53-1.46,1.01l-3.86,4.83c-.93,1.16-1.41,2.18-1.45,3.05s.36,1.65,1.2,2.32c.87.69,1.9.77,3.08.22s2.45-1.66,3.8-3.35c1.49-1.86,2.39-3.41,2.72-4.65.32-1.24.06-2.2-.8-2.89-.42-.33-.91-.55-1.49-.66Z"></path>
      <path d="m607.9,576.73c.75-.67,1-1.46.73-2.39-.26-.9-.91-1.48-1.97-1.75-1.06-.27-2.46-.21-4.19.17l1.65,5.81c1.77-.55,3.02-1.16,3.78-1.83Z"></path>
      <path d="m986.97,706.29c-.88-.49-1.71-.46-2.5.1-.76.54-1.09,1.35-1,2.44.09,1.09.61,2.39,1.54,3.9l4.93-3.48c-1.11-1.48-2.1-2.47-2.98-2.96Z"></path>
      <path d="m584.44,545.82c-.13-.87-.22-1.56-.24-2.05-.4-.38-.82-.65-1.24-.81-.43-.16-.9-.2-1.41-.12-.86.13-1.44.6-1.74,1.42-.3.81-.32,2.02-.07,3.63.23,1.51.66,2.61,1.28,3.32.62.7,1.39.99,2.3.85.41-.06.74-.19,1.01-.38s.46-.51.59-.95c.13-.45.13-1.05.01-1.82l-.48-3.08Z"></path>
      <path d="m664.55,675.18c.37-.93.23-1.76-.43-2.47-.63-.68-1.48-.91-2.55-.68s-2.29.92-3.67,2.04l4.09,4.44c1.33-1.29,2.18-2.4,2.55-3.34Z"></path>
      <path d="m617.01,620.18c-.99-.5-2.05-.47-3.17.11-.67.34-1.08.79-1.24,1.33-.16.54-.08,1.14.25,1.79.25.49.63.89,1.11,1.2.49.31,1.02.48,1.6.51s1.11-.08,1.6-.33l2.68-1.37c-.9-1.65-1.84-2.72-2.84-3.22Z"></path>
      <path d="m639.2,647.15c.68.4,1.43.53,2.25.4.81-.13,1.75-.55,2.8-1.26,1.04-.7,1.78-1.4,2.2-2.11.42-.7.58-1.42.47-2.14-.11-.73-.46-1.52-1.04-2.38-.47-.7-.85-1.24-1.13-1.61l-8.46,5.71.87,1.29c.68,1,1.36,1.7,2.04,2.1Z"></path>
      <path d="m1086.6,542.38c-.96.29-1.52.92-1.67,1.87-.14.92.21,1.72,1.06,2.41.85.69,2.14,1.22,3.88,1.6l.93-5.97c-1.84-.24-3.23-.21-4.2.08Z"></path>
      <path d="m1062.25,639.94c-.54-.82-1.29-1.64-2.24-2.44-.95-.81-2.05-1.6-3.29-2.39-2.03-1.28-3.84-2.2-5.42-2.75-1.58-.55-2.92-.72-4.03-.51-1.11.21-1.99.82-2.62,1.83-.94,1.48-.92,3.03.04,4.65s2.92,3.35,5.87,5.22c3.09,1.95,5.62,3.03,7.59,3.24,1.98.21,3.44-.44,4.41-1.97.5-.79.71-1.59.63-2.41-.08-.82-.39-1.64-.93-2.46Z"></path>
      <path d="m1101.96,392.37c-15.42-34.7-37.31-65.54-65.12-91.63-.13-.13-.28-.28-.43-.42l-2.64,2.83c1.04.96,2.06,1.95,3.08,2.91v100.34c-.17-.32-.32-.62-.49-.94l-3.44,1.81c1.36,2.61,2.68,5.23,3.93,7.88,13.51,28.47,20.61,59.98,20.61,91.7,0,117.98-95.99,213.95-213.95,213.95s-213.97-95.97-213.97-213.95c0-31.7,7.1-63.25,20.61-91.7,1.11-2.38,2.29-4.72,3.49-7.05l-3.44-1.79s-.04.08-.06.11v-100.35c1.02-.96,2.04-1.95,3.08-2.91l-2.64-2.83c-.15.13-.3.28-.43.42-27.81,26.09-49.71,56.92-65.12,91.63-16.02,36.12-24.14,74.64-24.14,114.49s7.48,75.17,22.22,110.01c14.23,33.65,34.61,63.87,60.57,89.83,25.94,25.96,56.17,46.32,89.83,60.57,34.84,14.74,71.85,22.2,110.01,22.2s75.15-7.46,109.99-22.2c33.67-14.24,63.89-34.61,89.83-60.57,25.96-25.96,46.34-56.19,60.57-89.83,14.74-34.84,22.22-71.87,22.22-110.01s-8.12-78.36-24.14-114.49Zm-288.33,371c-1.1.84-2.15,1.42-3.13,1.73-.98.32-2,.41-3.04.28-1.03-.13-1.91-.43-2.62-.9-.71-.47-1.23-1.07-1.53-1.79-.31-.72-.41-1.52-.3-2.39.22-1.76,1.26-3.04,3.11-3.84,1.86-.8,4.57-1.11,8.13-.94l.21-1.71c.14-1.12.12-1.99-.06-2.63s-.45-1.1-.82-1.4c-.37-.29-.82-.48-1.38-.54-.55-.07-1.04-.03-1.46.11-.43.14-.83.46-1.22.95s-.72,1.2-.99,2.13l-3.4-.42.4-3.27c1.17-.36,2.13-.62,2.89-.79.76-.18,1.51-.3,2.25-.39.73-.08,1.39-.13,1.96-.13.57,0,1.14.03,1.71.1,1.45.18,2.59.51,3.41,1.01.82.49,1.39,1.2,1.72,2.11.32.92.39,2.14.21,3.66l-.87,7.02c-.1.79-.15,1.41-.17,1.84-.02.44,0,.77.05.98.05.22.13.4.24.54.1.14.24.26.4.36.16.1.48.24.94.42l-.15,1.19-6.7-.82.45-2.34-.26-.12Zm-15.34-1.57c.09.2.23.38.43.54.2.17.45.32.75.47l-.25,1.17-8.6-1.82.25-1.17c.57-.01.99-.13,1.26-.34.27-.21.49-.52.65-.94.17-.42.37-1.18.61-2.31l1-4.74c.18-.84.31-1.53.38-2.08.08-.55.11-1,.11-1.36,0-.36-.05-.67-.14-.93-.09-.26-.2-.48-.33-.66-.13-.18-.3-.33-.5-.45-.2-.12-.46-.21-.79-.28-.45-.1-.95-.06-1.49.12-.54.18-1.03.47-1.47.89s-.71.91-.83,1.46l-1.44,6.83c-.24,1.13-.37,1.91-.39,2.37-.02.45.05.83.22,1.13.16.3.51.58,1.04.82l-.25,1.17-8.57-1.81.25-1.17c.6-.03,1.03-.15,1.31-.35.27-.2.49-.51.66-.92.17-.41.37-1.18.61-2.3l1.54-7.29c.18-.87.31-1.53.37-1.95.06-.43.06-.78,0-1.06-.06-.28-.19-.52-.38-.73-.2-.21-.57-.43-1.11-.67l.25-1.21,4.89.88,2.24.47-.81,2.5.2.1c.87-.5,1.62-.87,2.26-1.13.63-.25,1.28-.43,1.93-.52.65-.09,1.32-.06,1.99.08.97.2,1.75.51,2.32.93.58.41,1.01.93,1.3,1.54.28.61.43,1.32.44,2.13,0,.8-.09,1.72-.31,2.73l-1.37,6.49c-.11.52-.2,1.01-.28,1.47-.08.46-.11.83-.1,1.12.01.29.06.53.15.73Zm-22.71-4.95c.08.16.19.3.34.42.15.13.43.32.86.57l-.35,1.15-6.46-1.95.84-2.22-.23-.17c-1.23.64-2.36,1.03-3.38,1.18s-2.04.07-3.04-.24c-.99-.3-1.8-.75-2.43-1.33-.62-.59-1.03-1.26-1.21-2.02-.18-.76-.14-1.56.11-2.41.51-1.7,1.75-2.79,3.72-3.26,1.97-.47,4.69-.32,8.17.45l.5-1.65c.33-1.08.46-1.94.39-2.6-.07-.66-.25-1.16-.56-1.52-.31-.35-.73-.61-1.26-.77-.53-.16-1.02-.21-1.46-.14-.44.07-.9.31-1.37.73-.47.42-.92,1.06-1.34,1.93l-3.28-.99.96-3.16c1.21-.15,2.2-.25,2.99-.29.78-.04,1.54-.04,2.28,0,.74.04,1.39.11,1.96.2.57.1,1.12.23,1.66.39,1.4.42,2.46.95,3.19,1.57.73.62,1.17,1.42,1.34,2.37.16.96.02,2.17-.42,3.64l-2.05,6.77c-.23.76-.39,1.36-.48,1.79-.09.43-.13.75-.12.98.01.23.06.42.14.57Zm-19.7-6.34c.06.16.16.33.32.5.15.17.37.36.66.56l-.42,1.12-8.29-3.1.42-1.12c.61.06,1.06.01,1.36-.15.3-.16.56-.43.79-.81.23-.38.54-1.11.94-2.18l2.95-7.9c.21-.56.35-1.01.43-1.37.08-.36.08-.67.02-.92-.07-.26-.2-.49-.4-.68-.2-.2-.48-.41-.84-.63l.43-1.16,4.72,1.61,2.12.79-4.52,12.07c-.24.63-.41,1.13-.52,1.48-.11.35-.19.63-.22.83-.04.2-.05.38-.04.56,0,.17.04.34.09.5Zm-8.13-16.91c-.15-.48-.48-.83-.99-1.05-.24-.11-.54-.15-.9-.13-.36.02-.72.11-1.09.27-.37.16-.67.36-.9.6-.23.23-.42.49-.58.76-.16.27-.37.7-.62,1.27l-2.34,5.29c-.46,1.05-.75,1.8-.86,2.26-.11.45-.1.85.03,1.19.13.34.44.68.95,1.03l-.48,1.1-8.18-3.61.48-1.1c.59.09,1.05.07,1.35-.08.31-.14.58-.4.83-.76.25-.37.61-1.07,1.07-2.13l3.01-6.81c.36-.82.62-1.43.76-1.84.15-.4.22-.75.22-1.03s-.08-.55-.23-.79c-.15-.25-.46-.54-.95-.89l.5-1.13,4.6,1.88,2.09.92-1.34,2.4.19.15c1.23-.59,2.36-.91,3.4-.96,1.04-.04,2.05.16,3.05.59.67.3,1.35.68,2.03,1.15l-2.02,4.58-3-1.33c.1-.72.07-1.32-.08-1.8Zm-26.57-1.13c.19,1.27.98,2.28,2.36,3.02.81.43,1.62.67,2.44.72.81.04,1.8-.12,2.97-.48l.54,2.1c-1.7.57-3.22.81-4.54.72-1.32-.09-2.68-.51-4.06-1.25-2.48-1.33-3.99-3.01-4.51-5.03-.53-2.03-.08-4.38,1.36-7.06.92-1.73,2.04-3.04,3.36-3.95,1.31-.91,2.74-1.37,4.26-1.38,1.53-.01,3.08.4,4.64,1.24.97.52,1.76,1.08,2.37,1.7.61.61,1.07,1.26,1.38,1.94.31.68.48,1.39.52,2.14.05.89-.06,1.82-.32,2.79-.26,1-.72,2.13-1.38,3.39l-10.14-5.42c-1.02,1.94-1.44,3.54-1.25,4.81Zm-11.54-5.45c.09.42.33.75.71.99.29.18.56.31.82.4s.55.15.89.17c.33.02.72,0,1.15-.08l.17,1.9c-1.38.21-2.54.24-3.47.09s-1.81-.47-2.63-.98c-1.53-.95-2.42-2.07-2.66-3.37-.24-1.29.16-2.78,1.2-4.45l5.35-8.61-1.92-1.2.66-1.06c.69.29,1.25.42,1.67.4.42-.02.83-.15,1.2-.39.38-.24.79-.61,1.23-1.1.44-.49.95-1.14,1.51-1.94l3.68,2.29-2.39,3.85,4.39,2.72-1.2,1.93-4.39-2.73-4.31,6.95c-.72,1.16-1.2,2.05-1.44,2.67-.24.62-.31,1.14-.21,1.56Zm-10.67-4.93c.11.21.27.44.51.7l-.68.98-7.27-5.04.68-.98c.58.21,1.03.27,1.36.19.33-.08.65-.28.96-.59.31-.31.8-.94,1.45-1.89l4.81-6.93c.34-.49.59-.89.75-1.22.16-.33.24-.63.24-.89s-.07-.52-.22-.76c-.15-.24-.37-.52-.66-.82l.7-1.01,4.18,2.73,1.86,1.29-7.35,10.59c-.39.56-.68.99-.87,1.3-.2.31-.33.56-.42.75-.08.18-.14.36-.18.53-.04.17-.05.34-.03.51.01.17.07.36.18.57Zm5.98-19.33l2.53-3.65,4.08,2.83-2.53,3.65-4.08-2.83Zm58.48,25.62l-1.56,4.16-4.65-1.74,1.56-4.16,4.65,1.74Zm-68.57-39.82l-6.48,8.12v.02c.98-.07,1.8-.07,2.45-.01.65.06,1.28.19,1.9.41.61.22,1.2.55,1.74.99,1.68,1.34,2.47,2.94,2.36,4.8-.11,1.86-1.1,3.97-2.99,6.33-1.31,1.63-2.65,2.8-4.02,3.51-1.38.7-2.77.94-4.2.71-1.42-.23-2.85-.92-4.29-2.07-1.49-1.19-2.64-2.55-3.45-4.08l-1.69-.03-1.61-1.7,12.28-15.37c.54-.68.95-1.2,1.23-1.57.28-.37.5-.7.66-1,.16-.3.25-.57.27-.8.02-.23-.02-.47-.12-.7s-.31-.55-.64-.95l.75-.94,4.11,2.96,1.74,1.39Zm-39.97-5.45c.62.68,1.31,1.17,2.06,1.47.75.31,1.74.48,2.96.52l-.18,2.16c-1.8-.02-3.3-.29-4.52-.81-1.22-.52-2.36-1.36-3.43-2.51-1.91-2.07-2.78-4.15-2.61-6.24.17-2.09,1.37-4.16,3.6-6.22,1.44-1.33,2.93-2.2,4.47-2.63,1.54-.42,3.03-.39,4.48.1,1.45.49,2.77,1.39,3.98,2.7.75.81,1.31,1.6,1.68,2.38.37.78.6,1.54.66,2.29.07.74,0,1.47-.21,2.19-.25.85-.65,1.7-1.22,2.53-.57.86-1.38,1.77-2.42,2.75l-7.79-8.45c-1.6,1.49-2.52,2.87-2.76,4.14-.24,1.26.17,2.47,1.24,3.63Zm8.71,5.73l1.77,1.66c-.54,1-.77,1.92-.68,2.75.08.83.51,1.61,1.28,2.32.66.62,1.3.94,1.92.96.62.02,1.2-.26,1.74-.83.34-.36.55-.74.63-1.14.08-.4.06-.89-.08-1.45-.14-.57-.46-1.45-.97-2.64-.29-.67-.52-1.33-.71-1.98-.19-.66-.29-1.3-.31-1.92s.07-1.21.25-1.78c.19-.57.51-1.1.96-1.58.74-.8,1.62-1.27,2.62-1.42,1-.15,2.08.01,3.22.5,1.14.49,2.26,1.24,3.35,2.27.64.6,1.25,1.22,1.82,1.85.57.63,1.26,1.49,2.07,2.59l-2.89,3.08-1.75-1.63c.32-.75.51-1.4.56-1.94.05-.53-.02-1-.2-1.39-.18-.39-.47-.78-.88-1.16-.58-.54-1.17-.84-1.76-.9-.59-.06-1.11.15-1.56.63-.31.34-.52.68-.62,1.04s-.1.79.01,1.31c.11.52.44,1.4.99,2.63.51,1.12.85,2.11,1.02,2.98.17.86.16,1.67-.02,2.41-.18.75-.58,1.45-1.19,2.1-.67.71-1.38,1.21-2.13,1.48-.75.27-1.52.35-2.31.24-.79-.11-1.6-.4-2.41-.86-.82-.46-1.63-1.07-2.44-1.82-1.46-1.36-2.88-3.08-4.28-5.17l2.96-3.16Zm-12.91-42.92c-.06,1.87-1.03,3.45-2.91,4.72-1.33.9-2.69,1.38-4.07,1.45-1.38.07-2.7-.28-3.97-1.06-1.26-.78-2.46-2.01-3.6-3.7-.66-.97-1.17-1.78-1.55-2.43l-4.81,3.24c-.66.45-1.11.79-1.36,1.02-.24.24-.41.47-.49.7-.09.23-.11.48-.08.77.04.29.16.69.39,1.19l-.99.67-5.45-8.09.99-.67c.35.3.66.52.92.66.26.14.53.19.81.16.27-.03.58-.14.92-.32.34-.18.75-.44,1.23-.76l12.96-8.74c.47-.32.86-.6,1.16-.84.3-.24.52-.48.65-.72.13-.24.18-.51.16-.81-.02-.3-.11-.68-.27-1.12l.99-.67,5.89,8.74c1.71,2.53,2.54,4.74,2.48,6.62Zm-34.11-12.77l-1.06.55-3.08-6,2.19-.94-.04-.28c-1.31-.44-2.38-.98-3.19-1.61-.82-.63-1.46-1.42-1.94-2.36-.47-.92-.72-1.82-.73-2.67-.01-.86.19-1.62.62-2.27.42-.66,1.03-1.19,1.81-1.59,1.58-.81,3.22-.67,4.93.41,1.71,1.09,3.49,3.15,5.35,6.19l1.53-.79c1-.51,1.71-1.02,2.14-1.53.43-.5.66-.99.7-1.46.04-.47-.07-.95-.32-1.44-.25-.49-.56-.88-.92-1.15-.36-.27-.85-.43-1.48-.47-.63-.04-1.4.08-2.32.38l-1.56-3.05,2.94-1.51c.95.76,1.71,1.41,2.28,1.95.57.54,1.1,1.08,1.59,1.64.48.56.89,1.08,1.21,1.55s.62.96.88,1.47c.67,1.3,1.03,2.43,1.08,3.39.06.96-.2,1.83-.78,2.61-.58.78-1.55,1.53-2.91,2.23l-6.29,3.23c-.71.37-1.25.66-1.62.89-.37.23-.63.43-.79.6-.15.17-.26.33-.31.5-.06.16-.08.34-.07.54s.07.53.18,1.02Zm-9.32-18.67l-1.1.48-3.53-8.11,1.1-.48c.38.48.73.77,1.05.88.32.1.7.1,1.13,0,.43-.1,1.17-.38,2.22-.84l7.73-3.36c.54-.24.97-.45,1.28-.65.31-.2.54-.41.68-.63.14-.23.21-.48.21-.76,0-.28-.04-.63-.13-1.04l1.13-.49,2.12,4.51.9,2.08-11.82,5.14c-.62.27-1.1.49-1.43.65-.33.16-.58.3-.75.42s-.31.23-.43.35c-.12.12-.21.26-.29.42s-.13.34-.14.58c-.02.23,0,.52.06.86Zm-.1-58.57c1.02-.22,1.76-.39,2.24-.51.47-.12.87-.25,1.18-.37.31-.12.56-.27.72-.44.17-.17.29-.37.35-.63.07-.25.1-.63.08-1.15l1.17-.25,1.32,4.85.48,2.22-20.25,4.41c-1.12.24-1.89.45-2.3.61-.41.16-.72.38-.92.66-.2.27-.32.73-.34,1.37l-1.17.25-1.89-8.68,1.17-.25c.16.34.32.59.47.77.16.18.32.3.49.38.17.08.38.14.63.17.25.03.58.01.99-.05.41-.06,1-.18,1.75-.34l13.82-3.01Zm-2.99-24.75l-15.57,1.38c-.42.04-.81.08-1.17.14-.36.06-.65.13-.87.22-.22.09-.41.22-.55.37-.14.15-.26.35-.36.61-.09.25-.17.56-.22.91l-1.19.1-.84-9.48,1.19-.11c.16.43.32.77.48,1.02.16.25.37.42.63.53.26.11.58.16.96.16.38,0,.86-.02,1.44-.07l15.59-1.38c.58-.05,1.05-.11,1.42-.17.37-.06.67-.17.91-.32.24-.15.42-.36.54-.63.12-.27.22-.64.3-1.11l1.19-.11.84,9.48-1.19.11c-.18-.48-.35-.83-.52-1.05-.17-.22-.37-.38-.6-.49-.23-.1-.52-.16-.87-.18-.35-.02-.87,0-1.54.06Zm-11.14,40.89c1.09-1.79,3.1-3.1,6.02-3.93,1.88-.54,3.61-.65,5.17-.33,1.57.31,2.89,1.01,3.96,2.1,1.07,1.09,1.85,2.49,2.34,4.2.3,1.06.44,2.02.43,2.89-.02.87-.16,1.65-.44,2.34-.27.69-.67,1.32-1.18,1.86-.61.65-1.35,1.22-2.23,1.71-.9.51-2.03.96-3.4,1.37l-3.15-11.05c-2.1.61-3.54,1.43-4.33,2.45-.78,1.02-.96,2.29-.53,3.8.25.88.64,1.63,1.18,2.25.53.61,1.34,1.21,2.41,1.8l-1.13,1.85c-1.59-.83-2.82-1.75-3.67-2.76-.85-1.01-1.5-2.27-1.93-3.79-.77-2.71-.61-4.96.48-6.75Zm7.86,16.44l.84,2.28c-.93.65-1.55,1.37-1.85,2.15-.3.78-.27,1.66.1,2.65.31.85.74,1.42,1.29,1.72s1.19.31,1.93.04c.46-.17.82-.42,1.08-.74.26-.32.45-.76.58-1.33s.24-1.5.32-2.79c.04-.73.13-1.42.25-2.09.13-.67.32-1.29.59-1.85.26-.56.61-1.06,1.03-1.48.42-.43.95-.75,1.57-.98,1.02-.38,2.01-.41,2.98-.09s1.85.95,2.65,1.89c.8.95,1.46,2.13,1.98,3.53.3.83.57,1.65.79,2.47.22.82.45,1.9.69,3.24l-3.97,1.46-.82-2.25c.63-.53,1.09-1.02,1.37-1.48.28-.46.43-.9.45-1.33.01-.43-.07-.91-.26-1.43-.28-.75-.67-1.28-1.17-1.6-.5-.32-1.06-.36-1.67-.14-.43.16-.77.37-1.02.65-.25.27-.44.66-.58,1.18-.14.51-.24,1.45-.3,2.8-.05,1.23-.19,2.27-.43,3.11-.24.85-.6,1.56-1.1,2.15-.5.58-1.17,1.03-2.01,1.34-.92.34-1.77.46-2.56.36-.79-.1-1.51-.37-2.17-.82-.66-.45-1.25-1.07-1.77-1.85-.52-.78-.98-1.69-1.36-2.72-.69-1.87-1.19-4.05-1.5-6.54l4.07-1.5Zm21.55,11.81l4.07-1.77,1.98,4.56-4.07,1.77-1.98-4.56Zm-44.77-58.67c.2-.83.54-1.49,1.02-2,.48-.51,1.15-.83,2-.96.68-.11,1.34.01,1.98.35s1.22.87,1.75,1.58c.28-.56.64-.99,1.07-1.28.43-.3.99-.5,1.67-.61.56-.09,1.11-.05,1.63.11.53.16,1.02.4,1.48.73.46.33.98.76,1.55,1.31.38-1.01.96-1.82,1.74-2.44.78-.61,1.74-1,2.89-1.18,1.11-.17,2.1-.12,2.95.16.86.28,1.59.73,2.2,1.35.61.62,1.11,1.39,1.48,2.3.38.91.65,1.92.82,3.02.1.61.15,1.15.16,1.63.01.47.02.94.01,1.39l1,6.47-2.4.37-.13-3.12-.21-.04c-.28.39-.7.73-1.24,1.05-.55.31-1.23.53-2.04.65-2.08.32-3.75-.06-5.02-1.16-1.27-1.09-2.09-2.87-2.47-5.31-.18-1.18-.23-2.17-.13-2.95-.63-.51-1.25-.72-1.88-.63-.36.06-.62.17-.79.35-.17.18-.27.45-.32.83s-.02.89.08,1.55l.69,4.44c.31,2,.15,3.55-.47,4.66-.62,1.11-1.75,1.79-3.39,2.05-1.28.2-2.43,0-3.46-.58-1.03-.58-1.89-1.51-2.59-2.78-.69-1.28-1.18-2.84-1.47-4.69-.21-1.35-.34-2.58-.39-3.7-.05-1.12.02-2.09.22-2.91Zm64.2,125.99c-.31.35-.48.71-.53,1.07-.04.36.08.81.37,1.35l-.94.75-5.58-6.99.94-.75c.49.36.9.54,1.23.56.34.02.7-.08,1.09-.29.39-.21,1.03-.67,1.93-1.39l5.83-4.65c.7-.56,1.21-.98,1.52-1.27s.54-.56.67-.81c.13-.25.19-.52.17-.81-.02-.29-.16-.69-.43-1.22l.96-.77,3.21,3.79,1.42,1.79-2.3,1.51.11.22c1.36.04,2.51.28,3.45.73.94.44,1.75,1.09,2.43,1.94.46.58.88,1.23,1.26,1.96l-3.91,3.12-2.05-2.57c.42-.6.67-1.14.76-1.64.08-.49-.04-.96-.39-1.39-.17-.21-.41-.39-.74-.54-.33-.15-.69-.24-1.09-.27-.4-.03-.76,0-1.07.11-.31.1-.6.24-.87.41-.27.17-.65.45-1.14.84l-4.52,3.61c-.9.72-1.5,1.25-1.81,1.6Zm193.99,99.89c-1.33-.16-2.58-.38-3.75-.67l.09-5.58,2.48.04c.28,1.44.77,2.52,1.46,3.24.7.72,1.73,1.09,3.09,1.11.71.01,1.35-.1,1.93-.33.57-.23,1.03-.62,1.39-1.15.35-.53.54-1.2.55-2.01.01-.75-.12-1.4-.39-1.96-.27-.56-.71-1.08-1.32-1.59-.61-.51-1.46-1.05-2.55-1.62-.94-.49-1.78-.99-2.53-1.51-.75-.52-1.39-1.09-1.92-1.71-.53-.62-.93-1.29-1.22-2.02s-.42-1.55-.4-2.46c.02-1.49.41-2.74,1.17-3.77.75-1.03,1.83-1.8,3.24-2.31,1.4-.51,3.03-.76,4.86-.73,1.08.02,2.1.09,3.08.22.98.13,2.09.35,3.34.66l-.08,5.26-2.48-.04c-.21-.96-.5-1.72-.84-2.29-.35-.57-.78-.99-1.31-1.26-.53-.27-1.2-.42-2.01-.43-.69-.01-1.31.1-1.86.33-.55.23-.98.58-1.3,1.06-.32.47-.49,1.05-.5,1.72-.01.7.11,1.31.38,1.83.26.52.71,1.03,1.34,1.53s1.55,1.08,2.76,1.72c1.47.8,2.63,1.58,3.47,2.33.84.76,1.46,1.58,1.85,2.46.39.88.58,1.9.56,3.06-.02,1.49-.39,2.77-1.1,3.85s-1.72,1.91-3.05,2.47c-1.33.56-2.85.83-4.58.81-1.23-.02-2.52-.11-3.85-.27Zm246.25-201.24c.12.31.26.59.41.83.15.24.33.45.55.63.22.18.47.32.76.45.29.12.78.27,1.47.46l5.71,1.52c.8.21,1.41.36,1.83.44s.78.11,1.06.09c.28-.02.53-.12.76-.28.22-.16.45-.44.68-.84l1.16.31-2.22,8.34-1.16-.31c.01-.57-.07-.99-.26-1.26-.19-.27-.49-.5-.9-.68-.41-.18-1.17-.42-2.29-.73l-4.7-1.25c-.77-.2-1.43-.36-1.96-.48-.54-.11-.98-.18-1.33-.19-.34-.02-.66,0-.94.06s-.51.15-.71.26c-.19.12-.36.27-.5.47-.14.2-.25.46-.34.78-.11.43-.1.92.04,1.46.14.55.41,1.04.8,1.49.39.45.87.75,1.41.89l6.78,1.81c1.1.29,1.87.47,2.33.52.46.05.84,0,1.14-.14.31-.14.59-.46.86-.95l1.16.31-2.24,8.39-1.16-.31c0-.6-.1-1.04-.28-1.32-.19-.28-.48-.51-.88-.7-.4-.19-1.15-.43-2.27-.73l-7.2-1.92c-.87-.23-1.51-.39-1.93-.47-.42-.08-.77-.1-1.06-.06-.28.04-.53.16-.75.35-.22.18-.46.54-.73,1.07l-1.19-.32,1.14-4.84.59-2.21,2.45.94.11-.2c-.71-1.33-1.16-2.47-1.34-3.43-.18-.96-.15-1.89.08-2.77.23-.86.53-1.55.91-2.07.38-.51.83-.91,1.36-1.19.53-.28,1.18-.46,1.93-.52-.78-1.47-1.28-2.7-1.49-3.69-.21-.99-.19-1.96.06-2.9.25-.94.58-1.68.99-2.22.41-.55.92-.95,1.54-1.21.62-.26,1.34-.38,2.16-.35.82.02,1.77.18,2.84.47l6.39,1.71c.51.14,1,.26,1.45.36.45.1.82.16,1.11.16.29,0,.53-.03.73-.11.2-.08.39-.21.57-.4.18-.19.35-.43.51-.73l1.16.31-2.25,8.44-1.16-.31c.01-.56-.08-.97-.27-1.24-.19-.26-.49-.49-.91-.68s-1.17-.44-2.28-.73l-4.7-1.25c-1.05-.28-1.92-.47-2.59-.58-.68-.11-1.23-.11-1.66-.01-.43.1-.76.27-.99.5-.24.23-.42.57-.53,1.01-.08.3-.11.6-.08.88.03.28.1.58.22.89Zm3.55,33.11c-.04-.23-.11-.43-.21-.59-.1-.16-.25-.32-.44-.48-.19-.16-.48-.32-.86-.49-.38-.17-.94-.38-1.66-.65l-13.28-4.86c-.98-.36-1.7-.61-2.16-.76-.47-.15-.87-.26-1.2-.32-.33-.06-.61-.07-.84-.02-.23.05-.44.16-.63.34-.19.18-.42.48-.69.93l-1.12-.41,1.49-4.8.78-2.13,19.46,7.13c1.08.4,1.84.63,2.27.71.43.08.81.06,1.13-.06.32-.12.66-.44,1.02-.97l1.12.41-3.06,8.34-1.12-.41c.04-.37.05-.67.01-.9Zm-4.66,10.55c-.15-.3-.41-.58-.78-.82s-1.08-.58-2.14-1.03l-7.77-3.27c-.55-.23-1-.39-1.35-.48-.36-.09-.66-.11-.92-.05-.26.06-.49.18-.7.38-.21.2-.43.46-.67.81l-1.14-.48,1.8-4.65.88-2.09,11.89,5c.62.26,1.11.46,1.46.58.35.13.62.21.82.25.2.04.38.07.55.06.17,0,.34-.02.5-.07.17-.05.34-.15.52-.29.18-.15.38-.36.58-.64l1.1.46-3.43,8.16-1.1-.46c.08-.61.05-1.06-.09-1.37Zm-4.96,14.04c-.03.97-.25,1.86-.65,2.66-.58,1.15-1.25,1.95-2.02,2.42-.77.47-1.65.65-2.63.54-.98-.11-2.12-.5-3.43-1.16l-5.93-2.99c-.6-.3-1.07-.53-1.4-.68-.33-.15-.6-.25-.79-.31-.2-.06-.38-.09-.56-.11-.18-.01-.35,0-.52.04-.17.04-.35.13-.54.26-.19.13-.39.33-.62.59l-1.07-.54,3.17-6.3,8.99,4.53c1.04.52,1.86.9,2.48,1.13.62.23,1.14.34,1.57.32.43-.01.79-.11,1.08-.3.29-.18.54-.48.75-.89.2-.4.29-.88.26-1.45-.03-.57-.18-1.12-.48-1.65-.29-.53-.69-.93-1.2-1.18l-6.25-3.15c-.79-.4-1.38-.68-1.78-.84-.4-.16-.73-.25-.99-.27s-.51.03-.76.15c-.24.12-.54.37-.89.75l-1.07-.54,3.18-6.32,11.34,5.71c.82.41,1.43.7,1.82.87.39.16.73.25,1,.27.28.02.54-.05.8-.19s.56-.44.93-.89l1.08.55-2.07,4.48-.99,1.96-2.26-1.32-.15.17c.42,1.47.62,2.69.59,3.67Zm22.08-71.16c-1.74,1.17-4.11,1.52-7.11,1.05-1.94-.3-3.55-.92-4.84-1.86-1.29-.94-2.2-2.13-2.71-3.57-.52-1.44-.64-3.03-.37-4.79.17-1.09.44-2.02.82-2.8.38-.78.84-1.43,1.37-1.94.54-.51,1.15-.92,1.85-1.2.82-.34,1.74-.54,2.74-.62,1.03-.08,2.25-.02,3.66.18l-1.76,11.36c2.16.32,3.82.19,4.96-.42,1.14-.6,1.83-1.68,2.07-3.23.14-.91.1-1.75-.13-2.53-.23-.78-.71-1.66-1.43-2.65l1.8-1.21c1.1,1.42,1.83,2.77,2.18,4.05.35,1.28.41,2.69.17,4.25-.43,2.78-1.52,4.76-3.26,5.93Zm-.26-18.21l.19-2.42c1.12-.2,1.98-.59,2.58-1.18.6-.58.94-1.4,1.02-2.45.07-.9-.08-1.6-.45-2.1-.37-.5-.95-.78-1.73-.84-.49-.04-.92.03-1.29.21-.37.18-.73.51-1.09.97-.36.46-.84,1.26-1.46,2.4-.34.64-.71,1.24-1.11,1.79-.39.56-.83,1.03-1.31,1.43-.47.4-.99.7-1.56.91-.56.21-1.18.29-1.84.23-1.08-.09-2-.48-2.75-1.17-.74-.69-1.28-1.63-1.61-2.83-.33-1.2-.43-2.54-.31-4.03.07-.88.18-1.74.32-2.58.14-.84.39-1.92.73-3.23l4.21.34-.19,2.39c-.79.22-1.41.47-1.86.77-.45.3-.77.64-.96,1.02-.19.38-.31.85-.36,1.41-.06.8.06,1.44.39,1.94.32.5.81.77,1.46.83.46.04.86-.01,1.2-.16.34-.14.68-.42,1.02-.83.34-.41.82-1.21,1.44-2.41.56-1.1,1.13-1.98,1.7-2.65.57-.67,1.2-1.16,1.9-1.49.7-.32,1.49-.44,2.39-.37.98.08,1.8.33,2.48.75.68.42,1.22.97,1.62,1.66.41.69.68,1.49.83,2.42.15.93.18,1.94.09,3.04-.16,1.99-.62,4.18-1.38,6.56l-4.32-.35Zm-32.14,62.76l-1.93,4.58-4.1-1.72,1.93-4.58,4.1,1.72Zm-15.83,29.8c2.72-.43,5.81.45,9.26,2.63,2.81,1.77,4.78,3.73,5.92,5.86,1.13,2.13,1.39,4.41.76,6.83l1.9-.13c.49-.03.93-.08,1.32-.13.39-.06.75-.15,1.09-.28.34-.13.62-.28.84-.46.22-.18.41-.4.58-.66.2-.32.34-.61.43-.87.08-.26.13-.56.15-.89.01-.34-.02-.75-.09-1.26l2.01-.23c.21,1.09.32,2.01.33,2.76.01.75-.07,1.42-.23,2-.17.58-.46,1.2-.87,1.85-.45.72-.94,1.3-1.46,1.77-.52.46-1.16.83-1.92,1.1-.76.27-1.66.41-2.71.42l-3.97.04c-1.22,1.55-2.57,2.64-4.06,3.29-1.49.65-3.18.81-5.06.48-1.89-.33-3.97-1.21-6.23-2.64-2.3-1.45-4.03-3.06-5.2-4.82-1.17-1.76-1.73-3.62-1.68-5.57.05-1.96.69-3.92,1.93-5.88,1.93-3.06,4.26-4.8,6.98-5.22Zm-31.55,45.88c-.93-.9-1.6-1.53-2.01-1.88-.41-.35-.76-.58-1.04-.7s-.56-.15-.84-.09c-.27.06-.66.26-1.17.6l-.87-.85,3.32-3.78,1.58-1.63,14.82,14.41c.66.64,1.15,1.1,1.47,1.37.32.27.62.46.87.56.26.1.53.12.82.06.29-.06.67-.25,1.15-.58l.87.85-3.32,3.65-1.53,1.57-1.76-1.94-.2.18c.03,1.24-.13,2.37-.45,3.39-.33,1.02-.8,1.85-1.41,2.48-1.54,1.58-3.22,2.23-5.07,1.96-1.85-.27-3.86-1.46-6.03-3.58-1.47-1.43-2.48-2.88-3.03-4.34-.55-1.46-.62-2.91-.23-4.36.39-1.44,1.24-2.83,2.53-4.16.37-.38.76-.73,1.17-1.06.41-.32.92-.67,1.55-1.03l-1.18-1.15Zm-18.23,18.97c.7-.48,1.65-1.06,2.84-1.72l2.68,3.26-1.85,1.52c-.71-.42-1.32-.69-1.85-.81-.52-.12-.99-.11-1.41.02-.41.13-.83.37-1.26.72-.62.51-.99,1.05-1.12,1.63-.13.58,0,1.12.42,1.63.29.36.61.61.94.75.34.15.77.2,1.3.16.53-.04,1.44-.25,2.74-.64,1.18-.36,2.2-.56,3.08-.62.88-.06,1.67.06,2.39.34.72.28,1.36.77,1.93,1.46.62.76,1.02,1.52,1.19,2.3.17.78.15,1.55-.07,2.32s-.6,1.53-1.16,2.28c-.56.75-1.27,1.48-2.12,2.18-1.54,1.27-3.44,2.46-5.68,3.57l-2.75-3.35,1.88-1.54c.92.67,1.8,1.01,2.64,1.04s1.66-.3,2.47-.96c.7-.58,1.1-1.17,1.2-1.78.1-.61-.1-1.22-.6-1.83-.31-.38-.66-.64-1.05-.78-.39-.13-.87-.17-1.45-.11-.58.06-1.5.27-2.74.62-.7.2-1.38.35-2.06.45-.68.1-1.32.12-1.94.06-.62-.06-1.19-.23-1.74-.49-.54-.26-1.02-.65-1.45-1.16-.69-.84-1.05-1.77-1.07-2.78-.02-1.02.28-2.06.92-3.13.63-1.07,1.53-2.08,2.68-3.03.68-.56,1.37-1.08,2.07-1.56Zm-28.32,38.57c-.16-.41-.53-1.11-1.13-2.1l-3.85-6.38c-.46-.77-.82-1.33-1.06-1.68-.25-.35-.49-.61-.72-.77-.23-.16-.49-.25-.78-.27-.29-.02-.71.07-1.27.27l-.64-1.06,4.18-2.69,1.96-1.18,1.2,2.48.23-.08c.22-1.34.61-2.46,1.17-3.33.56-.87,1.31-1.59,2.24-2.15.63-.38,1.34-.71,2.11-1l2.58,4.29-2.81,1.7c-.54-.49-1.04-.82-1.52-.97-.48-.15-.96-.08-1.43.21-.23.14-.44.36-.63.66-.19.3-.33.66-.41,1.05-.08.39-.09.75-.03,1.08s.16.63.29.92c.13.29.36.7.68,1.24l2.99,4.96c.59.98,1.04,1.65,1.35,2,.31.35.64.57.99.66.35.09.82.03,1.39-.19l.62,1.02-7.66,4.62-.62-1.03c.42-.43.65-.82.71-1.15.06-.33.01-.71-.14-1.12Zm-18.25-9c-.58-1.16-1-1.97-1.28-2.43-.27-.46-.52-.8-.75-1-.23-.2-.48-.32-.76-.36-.28-.04-.71.02-1.31.19l-.54-1.09,4.38-2.47,2.03-1.01,9.23,18.49c.41.82.72,1.42.94,1.78.22.37.43.64.64.82.21.18.46.29.75.32.29.04.72-.02,1.28-.16l.54,1.09-4.34,2.35-1.96.98-1.02-2.41-.25.11c-.38,1.18-.9,2.2-1.55,3.05-.65.86-1.37,1.48-2.15,1.87-1.97.98-3.78,1.04-5.43.18-1.65-.86-3.16-2.65-4.51-5.37-.92-1.84-1.39-3.54-1.43-5.09-.04-1.56.37-2.95,1.22-4.19.85-1.23,2.1-2.26,3.76-3.09.48-.24.96-.44,1.45-.61.49-.17,1.09-.32,1.8-.46l-.74-1.48Zm25.85-24.32l3.1-2.18.69.98-1.78,8.4-1.87-.14-.14-7.05Zm1.01,10.99c.67-1.37,1.74-2.57,3.19-3.59.9-.63,1.76-1.09,2.58-1.36.82-.27,1.61-.39,2.35-.36.75.03,1.46.19,2.15.49.81.36,1.6.87,2.35,1.54.77.68,1.58,1.6,2.41,2.76l-9.39,6.63c1.27,1.78,2.52,2.87,3.74,3.27,1.22.4,2.48.15,3.76-.76.75-.53,1.33-1.15,1.73-1.85.4-.71.7-1.66.9-2.87l2.12.46c-.25,1.78-.72,3.24-1.39,4.38-.68,1.14-1.65,2.16-2.94,3.07-2.3,1.62-4.48,2.22-6.53,1.77-2.05-.44-3.95-1.9-5.7-4.38-1.13-1.6-1.8-3.19-2.03-4.77-.22-1.58,0-3.06.68-4.43Zm-50.36,28.04l.22-.03c.46-.89.88-1.62,1.27-2.18.39-.56.84-1.06,1.33-1.5.5-.43,1.07-.78,1.71-1.03.92-.36,1.74-.53,2.45-.5.71.03,1.35.22,1.93.58.57.36,1.09.87,1.54,1.54.45.67.86,1.49,1.24,2.45l2.42,6.18c.19.5.38.96.57,1.38.19.43.36.76.53.99.17.23.34.41.53.52.18.12.4.19.66.22.26.03.55.02.89-.02l.44,1.11-8.19,3.2-.44-1.11c.47-.32.76-.65.87-.97.11-.32.12-.7.03-1.14-.09-.44-.34-1.19-.76-2.26l-1.76-4.51c-.31-.8-.58-1.45-.82-1.95-.23-.5-.45-.9-.65-1.2-.2-.3-.41-.53-.63-.7-.21-.17-.43-.29-.64-.37-.21-.08-.43-.11-.66-.1-.23.01-.5.08-.82.2-.43.17-.82.47-1.18.92-.36.44-.6.96-.74,1.55-.13.59-.09,1.15.11,1.68l2.54,6.5c.42,1.07.74,1.8.97,2.19.23.39.5.67.8.83.3.16.74.2,1.32.11l.44,1.12-8.16,3.19-.44-1.11c.48-.36.78-.7.9-1.01.11-.32.13-.69.04-1.13-.08-.43-.34-1.18-.75-2.25l-2.72-6.94c-.32-.83-.58-1.44-.77-1.83-.18-.39-.38-.68-.58-.88-.2-.2-.44-.33-.72-.4-.28-.07-.71-.05-1.29.05l-.45-1.15,4.57-1.94,2.13-.83.7,2.53Zm-12.21,17.46c-.1-.36-.26-.75-.46-1.17-.21-.42-.5-.94-.88-1.56l-.96-1.57-7.44,2.13-.1,1.82c-.03.51-.04,1-.01,1.46.02.46.1.94.24,1.43.33,1.14,1.11,1.58,2.34,1.31l.33,1.15-7.45,2.13-.33-1.15c.42-.17.75-.43,1-.78.25-.35.45-.78.59-1.3.14-.52.25-1.23.31-2.14l1.74-21.45,4.65-1.33,11.33,17.88c.5.8.9,1.36,1.18,1.67.28.32.59.55.93.69.34.15.78.2,1.31.16l.33,1.15-9.62,2.75-.33-1.15c.58-.24.98-.54,1.2-.89.21-.35.25-.77.11-1.26Zm-32.72,5.18l-.73-4.79c-.13-.85-.25-1.54-.37-2.08-.12-.54-.24-.97-.37-1.31-.13-.33-.28-.61-.46-.82-.17-.21-.35-.38-.54-.5-.19-.13-.4-.21-.62-.25-.23-.04-.51-.03-.84.02-.45.07-.9.28-1.35.64-.45.35-.8.81-1.06,1.35-.26.55-.35,1.1-.26,1.66l1.05,6.9c.17,1.14.33,1.92.47,2.35.14.43.34.76.6.98.26.22.68.36,1.26.4l.18,1.18-8.66,1.32-.18-1.18c.55-.24.92-.51,1.1-.79.18-.28.28-.65.29-1.09.01-.44-.07-1.23-.24-2.37l-1.12-7.37c-.13-.88-.25-1.53-.34-1.96-.1-.42-.22-.75-.37-.99-.15-.24-.36-.42-.62-.55-.26-.13-.68-.2-1.27-.24l-.19-1.22,4.89-.89,2.26-.34.12,2.62.22.02c.64-.77,1.21-1.39,1.72-1.85.51-.46,1.05-.85,1.63-1.16.58-.32,1.21-.52,1.89-.63.98-.15,1.81-.13,2.5.05s1.27.51,1.75.99c.48.48.87,1.09,1.16,1.84.29.75.51,1.64.67,2.67l1,6.56c.08.53.16,1.02.25,1.47.09.46.19.82.3,1.08.11.26.25.47.4.63.15.15.35.27.6.36.25.08.54.15.87.18l.18,1.18-8.7,1.32-.18-1.18c.53-.22.88-.47,1.06-.76.18-.29.27-.66.28-1.1.01-.45-.07-1.24-.24-2.38Zm-22.35,5.42c-.92,1.03-1.84,1.79-2.75,2.29-.91.5-1.88.78-2.93.85-1.04.07-1.95-.06-2.74-.39-.79-.33-1.41-.82-1.84-1.47-.44-.65-.68-1.42-.74-2.3-.12-1.77.66-3.23,2.34-4.36,1.68-1.13,4.28-1.95,7.81-2.45l-.11-1.72c-.07-1.12-.26-1.98-.55-2.57-.29-.59-.65-1-1.06-1.22-.41-.22-.9-.31-1.45-.28-.55.04-1.03.17-1.42.39-.39.22-.73.61-1.02,1.17-.29.56-.48,1.32-.58,2.28l-3.42.23-.22-3.29c1.08-.57,1.98-1.01,2.69-1.32.72-.31,1.43-.58,2.14-.8s1.34-.39,1.9-.5c.56-.11,1.13-.18,1.69-.22,1.46-.1,2.64.02,3.54.35.9.33,1.6.91,2.09,1.75.49.84.79,2.03.89,3.56l.46,7.06c.05.8.11,1.41.18,1.84.07.43.14.75.24.96.09.2.2.37.33.49.13.12.28.21.46.28.18.07.52.15,1.01.23l.08,1.19-6.73.44v-2.38s-.27-.07-.27-.07Zm170.18-91.48c-1.51-1.24-2.59-2.6-3.22-4.06-.63-1.47-.81-2.95-.52-4.45s.99-2.94,2.12-4.31c.7-.85,1.41-1.51,2.13-1.99.72-.48,1.45-.8,2.17-.97.73-.17,1.46-.2,2.2-.09.88.13,1.77.42,2.67.86.93.45,1.95,1.12,3.06,2.02l-7.3,8.89c1.7,1.38,3.19,2.1,4.48,2.16s2.43-.51,3.42-1.73c.58-.71.98-1.46,1.18-2.25.2-.79.24-1.79.11-3.01l2.17-.12c.23,1.78.17,3.31-.18,4.59-.35,1.28-1.02,2.53-2.02,3.74-1.79,2.18-3.73,3.32-5.82,3.44-2.09.12-4.31-.78-6.66-2.71Z"></path>
      <path d="m1035,660.72c-.98-.24-1.77.01-2.39.76-.59.72-.7,1.59-.32,2.61s1.22,2.14,2.53,3.35l3.83-4.67c-1.46-1.14-2.68-1.82-3.65-2.06Z"></path>
      <path d="m1028,682.42l-4.33-4.21c-1.06-1.03-2.01-1.61-2.87-1.75-.86-.14-1.64.15-2.36.89-.52.54-.78,1.19-.77,1.95s.28,1.59.82,2.49c.54.9,1.31,1.84,2.3,2.81,1.71,1.66,3.16,2.71,4.37,3.16,1.2.44,2.19.27,2.96-.52.36-.37.63-.83.8-1.38.17-.55.19-1.14.05-1.76-.14-.63-.46-1.18-.96-1.67Z"></path>
    </g>
    <polygon points="507 273.36 507 798.35 470.06 798.35 470.06 342.08 443.95 359.36 443.95 798.35 407.01 798.35 407.01 383.79 356.6 417.16 356.6 372.91 470.06 297.79 507 273.36"></polygon>
    <polygon points="507 206.08 507 250.34 470.06 274.8 356.6 349.88 356.6 305.59 470.06 230.51 507 206.08"></polygon>
    <path d="m1525.72,559.4c-24.01,139.4-145.52,245.48-291.78,245.48-68.63,0-131.85-23.36-182.05-62.56,9.44-8.17,18.39-16.91,26.81-26.11,43.31,32.47,97.08,51.72,155.25,51.72,125.57,0,230.57-89.78,254.22-208.53h37.56Z"></path>
    <path d="m1524.69,452.42h-37.72c-25.82-115.96-129.47-202.87-253.03-202.87-58.17,0-111.94,19.25-155.25,51.72-8.42-9.2-17.36-17.94-26.81-26.11,50.2-39.2,113.42-62.56,182.05-62.56,144.29,0,264.48,103.2,290.75,239.81Z"></path>
    <path d="m1465.7,559.4c-23.19,106.69-118.14,186.57-231.76,186.57-52.83,0-101.68-17.28-141.09-46.51,7.64-9.65,14.7-19.79,21.18-30.38,33.46,25.08,74.96,39.94,119.91,39.94,92.94,0,171.26-63.63,193.75-149.63h38.01Z"></path>
    <path d="m1464.39,452.42h-38.3c-24.34-83.08-101.27-143.96-192.15-143.96-44.95,0-86.45,14.86-119.91,39.94-6.49-10.59-13.55-20.73-21.18-30.38,39.41-29.23,88.26-46.51,141.09-46.51,111.57,0,205.17,77.05,230.45,180.9Z"></path>
    <g>
      <path d="m1267.34,478.19h10.51l20.93,54.41h-10.76l-4.26-11.21h-22.2l-4.43,11.21h-10.76l20.98-54.41Zm5.32,14.43l-7.3,18.68h14.56l-7.26-18.68Z"></path>
      <path d="m1329.54,478.19h9.94l23.28,35.81v-35.81h10.36v54.41h-9.97l-23.26-35.7v35.7h-10.36v-54.41Zm10.36-4.36l-4.07-6.09c3.15-2.42,6.35-3.64,9.58-3.64,1.21,0,3.28.41,6.21,1.23,2,.53,3.59.8,4.77.8,2.07,0,4.21-.63,6.43-1.89l3.85,5.76c-3.11,2.65-6.12,3.97-9.03,3.97-1.55,0-3.41-.33-5.58-.98-1.78-.51-2.9-.81-3.36-.91-.64-.1-1.41-.14-2.3-.14-2.17,0-4.34.63-6.51,1.89Z"></path>
      <path d="m1433.97,476.82c7.7,0,14.32,2.79,19.86,8.36,5.54,5.57,8.31,12.37,8.31,20.38s-2.73,14.66-8.2,20.16c-5.47,5.5-12.1,8.25-19.9,8.25s-14.96-2.82-20.36-8.47c-5.4-5.65-8.1-12.36-8.1-20.12,0-5.2,1.26-9.99,3.77-14.35,2.52-4.36,5.98-7.82,10.38-10.38,4.41-2.55,9.15-3.83,14.23-3.83Zm-.11,10.14c-5.04,0-9.27,1.75-12.7,5.25-3.43,3.5-5.15,7.95-5.15,13.35,0,6.02,2.16,10.78,6.48,14.28,3.36,2.74,7.21,4.11,11.55,4.11,4.91,0,9.1-1.78,12.55-5.33s5.19-7.93,5.19-13.13-1.74-9.56-5.22-13.15c-3.48-3.59-7.72-5.38-12.7-5.38Z"></path>
      <path d="m1523.19,485.59l-7.67,6.77c-2.7-3.75-5.44-5.62-8.23-5.62-1.36,0-2.47.36-3.33,1.09-.87.73-1.3,1.55-1.3,2.46s.31,1.78.93,2.59c.84,1.09,3.38,3.42,7.6,6.99,3.95,3.3,6.35,5.39,7.19,6.25,2.1,2.12,3.59,4.15,4.47,6.08.87,1.94,1.31,4.05,1.31,6.34,0,4.46-1.54,8.15-4.63,11.06-3.09,2.91-7.11,4.36-12.07,4.36-3.88,0-7.25-.95-10.13-2.85-2.88-1.9-5.34-4.88-7.39-8.95l8.71-5.25c2.62,4.81,5.63,7.21,9.04,7.21,1.78,0,3.27-.52,4.48-1.55,1.21-1.04,1.82-2.23,1.82-3.59,0-1.23-.46-2.47-1.37-3.7-.91-1.23-2.93-3.12-6.04-5.66-5.93-4.83-9.76-8.56-11.49-11.19-1.73-2.62-2.59-5.25-2.59-7.86,0-3.77,1.44-7.01,4.32-9.71,2.87-2.7,6.43-4.05,10.65-4.05,2.72,0,5.3.63,7.76,1.89,2.46,1.26,5.12,3.55,7.98,6.88Z"></path>
    </g>
    <g>
      <path d="m1030.09,257.14v266.8c0,97.36-176.28,172.01-176.28,172.01,0,0-4.76,2.13-9.53,4.27-4.76-2.13-9.53-4.27-9.53-4.27,0,0-176.28-74.66-176.28-172.01v-266.8h131.59c20.14,0,39.52,7.67,54.22,21.44h0c14.69-13.77,34.08-21.44,54.22-21.44h131.59m8.58-8.58h-140.17c-19.81,0-38.79,6.6-54.22,18.72-15.43-12.12-34.41-18.72-54.22-18.72h-140.17v275.38c0,24.2,9.9,48.86,29.42,73.3,15.13,18.95,36.12,37.87,62.38,56.24,43.78,30.63,86.85,49.15,89.63,50.33l9.45,4.23,3.5,1.57,3.5-1.57,9.45-4.23c2.8-1.19,45.86-19.71,89.63-50.33,26.26-18.37,47.25-37.29,62.38-56.24,19.52-24.44,29.42-49.1,29.42-73.3V248.56h0Z"></path>
      <rect x="701.35" y="277.15" width="88.71" height="2.86"></rect>
      <rect x="898.5" y="277.15" width="88.71" height="2.86"></rect>
      <rect x="1007.22" y="300.02" width="2.86" height="198.1"></rect>
      <path d="m864.37,671.07l-1.25-2.57c15.89-7.74,46.91-24.06,76.09-46.34,35.65-27.22,57.54-54.72,65.08-81.74l2.75.77c-7.71,27.63-29.95,55.63-66.1,83.24-29.38,22.44-60.59,38.85-76.57,46.64Z"></path>
      <path d="m824.2,671.07c-15.98-7.79-47.19-24.2-76.57-46.64-36.15-27.61-58.39-55.62-66.11-83.25l2.75-.77c7.54,27.02,29.44,54.52,65.09,81.74,29.19,22.29,60.2,38.6,76.09,46.34l-1.25,2.57Z"></path>
      <rect x="678.48" y="300.02" width="2.86" height="198.1"></rect>
      <circle cx="679.91" cy="278.58" r="9.53"></circle>
      <circle cx="1008.65" cy="278.58" r="9.53"></circle>
      <circle cx="679.91" cy="519.56" r="9.53"></circle>
      <circle cx="1008.65" cy="519.56" r="9.53"></circle>
      <circle cx="844.28" cy="678.78" r="9.53"></circle>
      <path d="m1038.67,235.7h-144.2c-17.82,0-35.26,5.19-50.18,14.94h0s0,0,0,0c-14.92-9.75-32.36-14.94-50.18-14.94h-144.2v-21.44h144.2c17.82,0,35.26,5.19,50.18,14.94h0s0,0,0,0c14.92-9.75,32.36-14.94,50.18-14.94h144.2v21.44Z"></path>
      <g>
        <path d="m858.56,612.88c-.58,0-31.9-8.85-31.9-8.85l-25.39,3.32c-2.31.3-4.59.76-6.84,1.39l-23.53,6.52c4.4,3.18,8.78,6.2,13.09,9.04l23.55-4.9c15-3.12,30.49-3.01,45.44.32l32.32,16.52c5.33-3.11,11.05-6.6,16.95-10.43-18.2-5.44-43.32-12.93-43.69-12.93Z"></path>
        <path d="m844.28,300.02h-142.93v215.16c0,38.46,32.53,72.51,65.73,97.26l17.11-9.65c2.31-1.3,4.71-2.42,7.19-3.35l16.87-6.3c3.77-1.41,7.06-3.87,9.4-7.15,8.59-12.05,12.2-30.55,12.2-30.55-1.2,24.73,8.7,35.96,8.7,35.96.09.09.18.19.27.28,8.34,8.55,18.89,14.62,30.44,17.66l40.56,10.7c.2.1.39.21.59.31,3.74-2.56,7.51-5.26,11.28-8.07-9.79-3.83-22.3-7.94-33.95-9.42-11.98-1.52-22.16-4.25-29.34-6.59-8.06-2.63-14.46-8.86-17.32-16.84-.08-.22-.16-.44-.23-.66-6.12-17.62-5.18-36.86,1.79-54.16,4.41-10.94,11.46-23.81,22.04-31.81,21.32-16.1,31.76-34.15,31.76-34.15l8.27,4.57c-7.83,16.31-35.67,38.93-35.67,38.93,37.19-13.92,56.77-10.55,56.77-10.55l.11,7.07c-58.49,5.53-63.67,29.34-66.21,45.12-.58,3.63-.72,7.32-.41,10.99.45,5.23,1.81,10.34,4.02,15.1l5.04,10.84c.78,1.69,1.91,3.19,3.31,4.43,1.79,1.58,3.97,2.64,6.31,3.12,18.19,3.71,35.64,13.58,47.25,21.35,31.86-24.49,62.01-57.43,62.01-94.45v-215.16h-142.93Zm75.11,77.81c18.1,22.08,18.91,31.36,18.91,31.36,0,0,6.68,23.56-14.58,26.21-9.07,1.13-16.48-8.01-16.43-17.77.04-6.36,4.74-10.17,7.94-15,7.29-10.99,4.15-24.8,4.15-24.8Zm-95.29-15.17l4.65-18.59s4.22,30.84,13.1,38.02c8.87,7.18,15.23,23.52,6.43,33.32l-2.35,2.62c-7.27,8.1-19.27,9.89-28.59,4.27h0c-5.78-3.48-6.7-11.49-1.87-16.19h0c6.32-6.16,9.13-15.02,7.74-23.74-.85-5.33-1.01-12.09.9-19.7Zm-44.48,87.49l8.27-2.18,7.4,13.49c20.01,32.41,33.28,23.93,33.28,23.93,3.91,15.23,0,22.84,0,22.84,0,0-9.79-10.01-28.49-22.62-18.71-12.62-42.41-14.79-42.41-14.79l2.39-7.83c12.4,2.18,30.02,7.4,30.02,7.4-6.31-7.18-10.44-20.23-10.44-20.23Zm26.06,8.46c-11.93-1.65-8.19-16.19-8.19-16.19,0,0,.46-5.73,10.6-19.36,0,0-1.76,8.53,2.34,15.31,1.8,2.99,4.44,5.34,4.46,9.27.03,6.03-4.12,11.66-9.21,10.96Zm-10.97-78.67s.61-7.62,14.1-25.75c0,0-2.34,11.34,3.11,20.37,2.4,3.97,5.91,7.1,5.94,12.33.05,8.02-5.48,15.52-12.25,14.58-15.87-2.19-10.89-21.53-10.89-21.53Zm-22.87,28.03s.65-9.69,14.25-32.63c0,0-2.41,14.4,2.99,25.92,2.37,5.07,5.86,9.07,5.86,15.71,0,10.19-5.57,19.69-12.33,18.45-15.85-2.9-10.77-27.45-10.77-27.45Zm-29.44,9.51s.61-7.62,14.1-25.75c0,0-2.34,11.34,3.11,20.37,2.4,3.97,5.91,7.1,5.94,12.33.05,8.02-5.48,15.52-12.25,14.58-15.87-2.19-10.89-21.53-10.89-21.53Zm-16.17,39.04s-1.82-6.25,5.04-25.56c0,0,1.37,9.83,9.26,14.95,3.47,2.25,7.71,3.43,9.37,7.54,2.55,6.32-.24,14.29-6.82,16.06-15.42,4.14-16.86-12.98-16.86-12.98Zm37.61,47.89c-11.12,10.41-20.68-3.78-20.68-3.78,0,0-4.6-4.6-8.16-24.36,0,0,5.96,7.9,15.17,8.84,4.05.41,8.23-.44,11.66,2.38,5.25,4.34,6.76,12.48,2.02,16.92Zm65.29,33.07c-21.32-31.76-58.07-48.29-58.07-48.29l3.48-6.96c32.84,7.83,57.2,36.47,57.2,36.47,5.44-9.79,2.18-26.17,2.18-26.17-1.31-20.16-20.66-57.93-20.66-57.93l6.74-2.61c28.06,43.94,28.28,67.43,28.28,67.43-15.01,17.4-19.14,38.06-19.14,38.06Zm38.25-52.27l-10.77,9.79c-5.66-28.28-21.32-52.2-21.32-52.2l7.4-3.7c12.62,21.32,13.92,29.36,13.92,29.36.65-11.75,4.79-16.53,4.79-16.53l8.05,3.92c-10.01,25.67-2.07,29.36-2.07,29.36Zm2.07-59.65c-.08.12-.17.24-.25.36-4.86,6.88-15.47.83-12.05-6.86,1.43-3.21,3.12-7.31,4.96-12.39,5.49-15.14-6.76-40.21-18.17-54.99-11.41-14.79,11.41-26.62,11.41-26.62-3.24,18.51,1.98,30.56,18.71,32.11,23.61,2.19,13.4,11.41,2.84,22.89-10.56,11.48.84,33.3-7.45,45.5Zm16.86,29.38c-6.77,1.06-12.29-7.41-12.24-16.46.03-5.9,3.54-9.44,5.94-13.92,5.46-10.2,3.12-23,3.12-23,13.48,20.46,14.08,29.06,14.08,29.06,0,0,4.96,21.84-10.91,24.32Zm15.09-49.09c-7.39,1.02-13.43-7.18-13.38-15.93.03-5.71,3.87-9.13,6.48-13.47,5.95-9.87,3.39-22.26,3.39-22.26,14.74,19.8,15.41,28.13,15.41,28.13,0,0,5.43,21.13-11.9,23.52Zm11.24,71.74s8.27-1.16,11.89-1.16l1.01,7.11s-25.52,2.32-35.82,6.82c0,0,17.69-15.37,25.67-26.97l7.98-11.6h6.53s-9.57,18.27-17.26,25.81Zm42.9,13.77s-5.5,15.85-17.61,10.02c-5.17-2.49-5.56-10.3-1.81-15.89,2.44-3.64,6.35-4.2,9.87-5.87,8-3.79,11.63-12.82,11.63-12.82,1.03,18.95-2.08,24.56-2.08,24.56Zm6.84-46.69s-.93,19.95-16.74,17.38c-6.74-1.1-9.82-9.89-7.42-17.54,1.56-4.98,5.84-6.94,9.3-10.04,7.86-7.03,8.96-18.56,8.96-18.56,7.57,21.29,5.91,28.76,5.91,28.76Z"></path>
        <path d="m852.99,640.5l16.11,4.75c3.91-2.07,8.34-4.48,13.12-7.22l-11.95-3.42c-7.57-2.17-15.29-3.75-23.11-4.72l-16.86-2.1-39.94.62c6.98,4.41,13.61,8.31,19.58,11.66,14.25-1.52,28.89-1.38,43.04.44Z"></path>
        <path d="m847.16,646.36l-16.86-1.21-10.83.1c10.62,5.61,17.49,8.66,17.49,8.66,0,0,3.66,1.72,7.33,3.44,3.66-1.72,7.33-3.44,7.33-3.44,0,0,4.57-2.03,12.01-5.82-5.43-.75-10.92-1.33-16.46-1.73Z"></path>
      </g>
    </g>
  </g>
</svg>