<svg xmlns="http://www.w3.org/2000/svg" version="1.0" preserveAspectRatio="xMidYMid meet" viewBox="170 311.9 775 986.1">
    <g transform="translate(0.000000,1600.000000) scale(0.100000,-0.100000)" stroke="none" fill="#875e53">
        <path d="M1700 12670 c0 -193 1 -210 18 -210 9 0 683 -1 1497 -3 1478 -3 1480 -3 1575 -25 149 -34 322 -96 438 -157 113 -60 248 -153 296 -204 37 -39 55 -39 92 0 16 17 64 56 107 87 222 163 513 271 782 292 67 5 745 10 1533 10 l1412 0 0 210 0 211 -1482 -4 c-1345 -3 -1491 -5 -1568 -20 -161 -32 -305 -79 -427 -137 -136 -65 -212 -114 -325 -207 l-77 -64 -78 64 c-215 177 -447 282 -753 344 -77 15 -222 17 -1562 20 l-1478 4 0 -211z"></path>
        <path d="M1700 9403 c0 -2986 -2 -2861 49 -3092 27 -123 110 -349 174 -476 79 -155 215 -372 296 -471 14 -17 49 -60 76 -95 166 -211 524 -569 741 -739 17 -14 64 -52 105 -85 40 -33 95 -76 121 -95 26 -19 93 -69 148 -110 127 -94 170 -124 414 -285 302 -200 400 -259 756 -457 131 -73 539 -288 547 -288 2 0 49 -22 106 -49 214 -102 307 -141 337 -141 37 0 144 47 450 197 213 104 572 293 660 348 19 12 60 35 90 52 206 115 630 384 825 524 213 153 203 145 380 286 767 606 1242 1225 1399 1823 71 268 66 37 66 3138 l0 2803 -1517 -4 c-1698 -4 -1591 1 -1824 -77 -181 -60 -334 -140 -464 -240 -51 -40 -78 -49 -90 -31 -3 6 -33 29 -68 53 -56 40 -87 58 -225 135 -58 33 -274 108 -365 127 -156 33 -287 36 -1739 36 l-1448 0 0 -2787z m3115 2604 c296 -72 485 -166 693 -346 l62 -53 43 38 c191 175 419 290 711 361 65 16 188 17 1514 20 l1442 4 -3 -2758 -3 -2758 -27 -120 c-49 -214 -98 -343 -208 -550 -108 -201 -201 -337 -377 -548 -255 -307 -732 -728 -1152 -1020 -151 -105 -296 -202 -305 -206 -5 -2 -35 -21 -65 -41 -139 -95 -528 -324 -745 -440 -55 -29 -122 -65 -150 -80 -103 -57 -435 -220 -552 -273 l-122 -54 -78 34 c-214 94 -521 249 -854 430 -30 17 -100 57 -155 89 -54 32 -131 76 -169 98 -183 106 -619 392 -770 504 -27 21 -86 65 -130 97 -385 286 -784 663 -1026 971 -45 57 -168 233 -218 311 -98 154 -216 427 -261 602 -51 201 -50 133 -50 3024 l0 2688 1443 -4 c1319 -3 1448 -4 1512 -20z"></path>
        <path d="M2225 11769 c-92 -34 -140 -150 -101 -243 28 -68 102 -116 176 -116 99 1 197 122 175 218 -9 43 -53 106 -87 126 -36 22 -123 29 -163 15z"></path>
        <path d="M8789 11771 c-128 -42 -165 -221 -64 -310 81 -71 181 -66 258 14 105 108 37 289 -115 300 -29 3 -65 1 -79 -4z"></path>
        <path d="M2722 11598 l3 -23 903 -3 902 -2 0 25 0 25 -906 0 -905 0 3 -22z"></path>
        <path d="M6610 11595 l0 -25 903 2 902 3 3 23 3 22 -905 0 -906 0 0 -25z"></path>
        <path d="M2270 9212 c0 -1072 3 -1951 6 -1955 3 -3 12 -3 20 0 12 4 14 291 14 1954 0 1942 0 1949 -20 1949 -20 0 -20 -7 -20 -1948z"></path>
        <path d="M2720 9073 c0 -1255 4 -2134 10 -2203 38 -450 292 -900 767 -1360 65 -63 134 -129 153 -145 63 -56 224 -190 261 -218 l36 -27 63 35 c34 19 64 35 66 35 2 0 38 20 78 45 41 25 76 45 78 45 2 0 54 28 114 63 107 61 147 78 434 188 175 67 177 68 241 136 91 99 174 283 252 557 l14 50 7 -115 c12 -203 63 -398 132 -506 65 -102 217 -224 384 -308 80 -40 153 -66 305 -108 257 -70 560 -150 652 -172 43 -10 89 -29 113 -46 22 -16 42 -29 46 -29 3 0 30 19 59 43 30 23 75 58 100 77 25 19 45 38 45 42 0 8 -108 50 -290 111 -130 44 -275 76 -595 132 -416 72 -594 158 -698 336 -31 53 -89 225 -108 324 -21 107 -18 417 5 525 65 306 225 631 398 811 34 36 108 101 163 145 146 115 357 330 460 470 50 66 95 129 100 139 10 16 17 14 92 -30 76 -44 81 -49 73 -71 -22 -57 -126 -194 -247 -325 -95 -104 -297 -298 -353 -340 -19 -15 -33 -29 -30 -32 3 -2 80 19 172 49 278 88 568 138 768 132 l105 -3 3 -72 3 -71 -53 -7 c-328 -40 -629 -122 -794 -215 -240 -135 -359 -297 -415 -565 -43 -207 -25 -417 50 -577 127 -273 144 -300 206 -331 17 -8 82 -29 146 -46 276 -73 532 -191 807 -371 l105 -70 66 56 c519 440 831 842 969 1249 84 244 76 -6 79 2458 l3 2197 -2800 0 -2800 0 0 -2087z m3059 1562 c-18 -172 17 -316 96 -397 71 -74 132 -99 301 -123 109 -15 203 -45 226 -73 22 -25 28 -58 16 -100 -12 -43 -41 -83 -148 -202 -158 -177 -154 -163 -155 -540 l0 -305 -27 -56 c-39 -79 -67 -101 -131 -107 -36 -3 -63 1 -84 11 -40 21 -50 35 -64 87 -11 44 -10 49 51 200 62 152 64 157 68 265 5 135 -8 216 -60 360 -68 187 -169 370 -323 584 -46 64 -57 152 -29 234 9 27 39 73 71 109 58 65 183 162 195 150 3 -4 2 -47 -3 -97z m-499 -307 c0 -32 48 -241 87 -373 41 -141 112 -285 157 -316 36 -25 102 -105 138 -169 74 -127 89 -302 36 -411 -37 -74 -143 -181 -215 -217 -87 -43 -143 -55 -230 -50 -182 12 -302 106 -303 236 0 56 20 97 81 167 93 107 132 213 128 355 -9 351 -8 357 49 593 30 119 58 215 63 211 5 -3 9 -14 9 -26z m-398 -238 c-8 -141 20 -234 112 -374 81 -122 90 -177 50 -298 -21 -66 -96 -143 -152 -158 -77 -20 -176 11 -227 72 -54 64 -69 113 -69 223 1 111 18 174 81 299 52 104 192 316 208 316 1 0 0 -36 -3 -80z m1821 -51 c90 -133 180 -308 203 -394 22 -88 21 -228 -3 -291 -65 -167 -238 -237 -366 -147 -54 37 -82 81 -107 161 -37 121 -22 189 72 328 78 114 103 198 103 346 0 74 4 117 10 115 6 -2 45 -55 88 -118z m-2257 -421 c0 -79 6 -170 13 -203 7 -33 44 -125 82 -205 39 -82 73 -168 77 -196 24 -146 -45 -336 -142 -395 -88 -54 -234 12 -285 130 -45 106 -45 346 1 491 41 131 230 520 252 520 0 0 1 -64 2 -142z m2674 -24 c144 -192 222 -327 261 -454 19 -59 24 -97 23 -180 0 -121 -21 -190 -78 -257 -66 -76 -221 -121 -322 -94 -158 43 -271 282 -203 430 11 25 48 83 83 130 76 103 87 124 117 221 19 62 23 97 23 197 -1 143 -6 143 96 7z m-3244 -262 c0 -132 32 -238 96 -322 61 -81 78 -125 78 -201 0 -113 -47 -209 -127 -256 -39 -22 -52 -25 -108 -21 -83 7 -133 36 -178 104 -83 127 -66 324 45 524 41 75 178 280 186 280 4 0 7 -48 8 -108z m2497 -149 c113 -175 207 -382 228 -498 15 -87 7 -247 -16 -299 -55 -127 -199 -201 -295 -151 -37 19 -94 89 -122 151 -18 39 -22 67 -23 144 0 90 2 98 34 155 121 211 146 291 145 463 -1 56 0 102 2 102 2 0 23 -30 47 -67z m1420 -373 c73 -251 82 -369 38 -508 -30 -98 -76 -158 -149 -194 -54 -27 -69 -30 -120 -25 -74 6 -115 27 -151 77 -51 71 -60 225 -18 306 15 29 101 113 152 148 15 10 49 48 76 85 46 61 78 141 104 255 3 17 10 25 15 20 5 -5 29 -79 53 -164z m-2890 -220 c15 -30 43 -80 62 -111 45 -71 52 -111 31 -184 -35 -118 -121 -169 -221 -131 -117 45 -154 189 -94 364 21 62 47 109 128 232 l56 85 6 -100 c4 -81 10 -110 32 -155z m-1493 43 c25 -102 100 -195 204 -252 39 -22 83 -52 98 -68 108 -113 55 -332 -90 -373 -61 -17 -141 -12 -189 11 -56 27 -94 75 -121 152 -32 93 -36 151 -18 252 29 156 82 339 96 330 4 -2 13 -26 20 -52z m1757 -58 c211 -343 374 -703 444 -983 48 -188 49 -220 11 -264 -120 -138 -231 -351 -312 -598 -16 -46 -32 -86 -37 -87 -4 -1 -24 21 -43 50 -74 110 -264 311 -413 437 -162 137 -364 273 -569 384 -49 26 -88 52 -88 58 0 23 55 128 68 128 20 0 153 -37 197 -55 302 -124 561 -298 806 -542 l97 -95 21 57 c71 189 26 562 -113 935 -58 157 -171 421 -230 539 -23 44 -34 77 -28 83 13 13 105 48 120 45 8 -1 39 -42 69 -92z m442 -152 c83 -149 178 -350 187 -398 7 -39 8 -38 20 41 14 84 44 175 69 208 14 18 16 18 77 -12 105 -52 102 -46 73 -126 -68 -185 -85 -400 -38 -464 l23 -31 -58 -54 c-126 -119 -152 -140 -156 -126 -3 8 -25 87 -50 177 -66 235 -194 535 -314 737 -23 38 -42 76 -42 83 0 12 110 70 137 71 6 1 38 -47 72 -106z m-1044 -201 c128 -235 236 -378 365 -483 104 -86 145 -103 255 -104 l90 -2 12 -64 c23 -122 10 -369 -20 -369 -5 0 -36 25 -68 55 -182 168 -486 388 -649 470 -159 80 -510 185 -617 185 -16 0 -32 3 -35 6 -3 3 6 41 20 85 26 79 27 80 57 74 59 -12 508 -125 516 -131 17 -10 9 5 -40 81 -50 76 -138 281 -126 293 5 6 132 47 155 51 3 0 41 -66 85 -147z m2661 60 c-2 -4 -28 -50 -58 -102 -78 -134 -143 -234 -206 -313 l-54 -69 78 8 c148 15 138 19 148 -59 5 -37 7 -69 5 -71 -2 -2 -85 -16 -184 -30 -257 -37 -350 -54 -430 -81 -38 -13 -71 -22 -73 -20 -1 1 30 33 70 71 260 247 344 344 532 619 42 61 40 60 110 57 37 -2 64 -7 62 -10z m540 -319 c9 -35 -3 -290 -17 -356 -25 -120 -109 -246 -193 -289 -47 -24 -120 -21 -179 7 -113 54 -116 253 -6 351 20 16 73 46 119 64 101 42 180 110 225 194 17 31 33 56 37 56 4 0 11 -12 14 -27z m-4260 -184 c75 -81 187 -129 300 -129 124 0 193 -40 245 -140 17 -32 23 -63 24 -107 0 -53 -4 -67 -30 -104 -17 -24 -53 -57 -80 -74 -61 -38 -147 -41 -210 -8 -50 26 -139 115 -170 168 -26 45 -86 226 -110 328 -24 109 -19 119 31 66z"></path>
        <path d="M8820 9211 c0 -2018 -1 -1967 38 -1954 9 4 12 403 12 1954 l0 1949 -25 0 -25 0 0 -1949z"></path>
        <path d="M2275 7003 c-101 -18 -165 -86 -165 -175 0 -58 26 -115 70 -152 39 -33 67 -40 134 -34 59 5 90 24 132 82 40 56 41 135 2 194 -16 23 -38 48 -50 56 -27 18 -95 33 -123 29z"></path>
        <path d="M8765 6986 c-45 -20 -76 -60 -91 -115 -31 -122 51 -231 175 -231 59 0 94 15 132 57 44 47 53 76 50 154 -2 39 -55 113 -96 132 -42 20 -128 22 -170 3z"></path>
        <path d="M2348 6413 c-24 -6 -23 -15 16 -129 223 -653 914 -1365 1961 -2021 277 -173 455 -276 697 -402 130 -68 137 -71 147 -52 10 18 -1 26 -122 89 -72 39 -161 87 -197 108 -36 20 -78 44 -95 52 -105 53 -631 383 -760 477 -38 28 -122 89 -185 135 -105 76 -222 168 -415 327 -87 72 -415 396 -487 481 -263 313 -435 600 -512 855 -15 48 -28 86 -29 86 -1 -1 -10 -3 -19 -6z"></path>
        <path d="M8755 6363 c-29 -115 -160 -388 -256 -534 -202 -304 -524 -647 -879 -936 -250 -203 -524 -398 -825 -588 -144 -91 -384 -235 -391 -235 -3 0 -23 -12 -47 -27 -23 -14 -69 -40 -102 -58 -291 -153 -295 -156 -283 -175 10 -15 15 -16 37 -6 76 33 467 249 583 323 21 12 39 23 42 23 6 0 216 133 361 229 136 90 384 266 470 333 28 22 91 71 140 110 247 194 572 510 746 727 116 143 233 320 309 465 62 118 154 351 145 367 -13 20 -43 9 -50 -18z"></path>
        <path d="M5120 5329 c-36 -5 -141 -18 -235 -30 -170 -20 -310 -52 -630 -144 -82 -23 -175 -48 -205 -55 l-54 -13 39 -34 c22 -18 70 -55 107 -80 l69 -47 147 28 c81 16 236 48 345 72 343 76 613 90 912 49 96 -13 121 -21 205 -64 52 -27 176 -90 275 -141 99 -51 223 -114 276 -142 l95 -49 65 41 c161 106 249 165 249 170 0 5 -99 36 -810 247 -47 14 -164 47 -260 73 -96 26 -233 64 -305 84 -150 43 -195 48 -285 35z"></path>
        <path d="M4717 4879 c-225 -4 -411 -10 -413 -12 -5 -4 299 -204 341 -225 13 -6 55 -5 125 4 183 23 478 36 635 29 262 -12 332 -21 455 -60 63 -20 163 -49 223 -66 l108 -29 47 24 c26 13 78 44 115 69 l69 44 -49 12 c-26 7 -124 35 -218 62 -93 27 -224 60 -291 73 -180 37 -567 86 -658 84 -45 -1 -265 -5 -489 -9z"></path>
        <path d="M4816 4541 c5 -5 32 -21 59 -36 28 -16 93 -52 145 -82 52 -29 186 -99 297 -155 l202 -102 103 49 c57 26 175 86 263 133 88 47 175 93 194 103 l35 17 -30 5 c-59 12 -384 48 -569 62 -205 16 -715 21 -699 6z"></path>
        <path d="M5495 3816 c-93 -43 -137 -166 -91 -254 32 -61 128 -109 194 -97 89 16 152 92 152 182 0 99 -70 174 -168 180 -34 2 -69 -2 -87 -11z"></path>
    </g>
</svg>