<svg xmlns="http://www.w3.org/2000/svg" id="Capa_1" data-name="Capa 1" viewBox="336 262.5 408 519.86">
    <g fill="#392429">
    <path d="m735,307.5v280c0,102.17-185,180.52-185,180.52l-10,4.48c-5-2.24-10-4.48-10-4.48,0,0-185-78.35-185-180.52v-280h138.1c21.14,0,41.48,8.04,56.9,22.5h0c15.42-14.46,35.76-22.5,56.9-22.5h138.1m9-9h-147.1c-20.79,0-40.71,6.92-56.9,19.65-16.19-12.72-36.11-19.65-56.9-19.65h-147.1v289c0,25.4,10.39,51.28,30.87,76.93,15.88,19.88,37.91,39.74,65.47,59.02,45.94,32.14,91.14,51.58,94.06,52.82l9.92,4.44,3.68,1.65,3.68-1.65,9.92-4.44c2.94-1.25,48.13-20.69,94.06-52.82,27.56-19.28,49.58-39.14,65.47-59.02,20.49-25.65,30.87-51.53,30.87-76.93v-289h0Z"></path>
    <rect x="390" y="328.5" width="93.1" height="3"></rect>
    <rect x="596.9" y="328.5" width="93.1" height="3"></rect>
    <rect x="711" y="352.5" width="3" height="207.9"></rect>
    <path d="m561.08,741.9l-1.31-2.7c16.68-8.12,49.23-25.25,79.85-48.64,37.41-28.57,60.39-57.43,68.3-85.78l2.89.81c-8.09,28.99-31.43,58.39-69.37,87.36-30.83,23.55-63.58,40.78-80.36,48.95Z"></path>
    <path d="m518.92,741.9c-16.78-8.17-49.52-25.4-80.36-48.95-37.94-28.97-61.28-58.37-69.38-87.36l2.89-.81c7.92,28.35,30.9,57.22,68.31,85.79,30.63,23.39,63.18,40.51,79.85,48.64l-1.31,2.7Z"></path>
    <rect x="366" y="352.5" width="3" height="207.9"></rect>
    <circle cx="367.5" cy="330" r="10"></circle>
    <circle cx="712.5" cy="330" r="10"></circle>
    <circle cx="367.5" cy="582.9" r="10"></circle>
    <circle cx="712.5" cy="582.9" r="10"></circle>
    <circle cx="540" cy="750" r="10"></circle>
    <path d="m744,285h-151.33c-18.71,0-37.01,5.45-52.67,15.68h0s0,0,0,0c-15.66-10.23-33.96-15.68-52.67-15.68h-151.33v-22.5h151.33c18.71,0,37.01,5.45,52.67,15.68h0s0,0,0,0c15.66-10.23,33.96-15.68,52.67-15.68h151.33v22.5Z"></path>
    <path d="m554.99,680.83c-.61,0-33.48-9.28-33.48-9.28l-26.64,3.48c-2.42.32-4.82.8-7.17,1.46l-24.7,6.84c4.62,3.34,9.22,6.51,13.74,9.48l24.71-5.14c15.74-3.27,32-3.16,47.69.34l33.92,17.34c5.6-3.27,11.6-6.93,17.79-10.95-19.1-5.71-45.46-13.57-45.85-13.57Z"></path>
    <path d="m540,352.5h-150v225.81c0,40.36,34.14,76.1,68.98,102.07l17.96-10.13c2.42-1.36,4.94-2.54,7.55-3.51l17.7-6.61c3.95-1.48,7.41-4.06,9.86-7.5,9.02-12.65,12.81-32.06,12.81-32.06-1.26,25.95,9.13,37.74,9.13,37.74.09.1.19.19.28.29,8.75,8.97,19.82,15.34,31.94,18.54l42.57,11.23c.21.1.41.22.62.33,3.92-2.69,7.88-5.52,11.83-8.47-10.27-4.02-23.41-8.33-35.63-9.89-12.57-1.6-23.26-4.46-30.79-6.92-8.46-2.76-15.18-9.3-18.18-17.67-.08-.23-.16-.46-.24-.69-6.43-18.49-5.44-38.69,1.88-56.84,4.63-11.48,12.02-24.99,23.13-33.38,22.37-16.89,33.33-35.84,33.33-35.84l8.67,4.79c-8.22,17.12-37.43,40.86-37.43,40.86,39.03-14.61,59.58-11.07,59.58-11.07l.11,7.42c-61.39,5.8-66.82,30.79-69.48,47.36-.61,3.81-.76,7.68-.43,11.53.47,5.49,1.9,10.85,4.22,15.85l5.29,11.37c.82,1.77,2,3.35,3.47,4.65,1.88,1.66,4.17,2.77,6.62,3.27,19.09,3.89,37.41,14.25,49.59,22.41,33.44-25.7,65.07-60.27,65.07-99.12v-225.81h-150Zm78.82,81.66c18.99,23.17,19.85,32.91,19.85,32.91,0,0,7.01,24.72-15.3,27.51-9.52,1.19-17.3-8.4-17.24-18.65.04-6.68,4.97-10.67,8.34-15.75,7.66-11.54,4.35-26.03,4.35-26.03Zm-100-15.92l4.88-19.51s4.43,32.37,13.74,39.9c9.31,7.54,15.99,24.68,6.75,34.96l-2.47,2.75c-7.63,8.5-20.23,10.38-30.01,4.48h0c-6.06-3.66-7.03-12.05-1.96-16.99h0c6.64-6.47,9.58-15.77,8.12-24.92-.89-5.59-1.06-12.69.94-20.67Zm-46.69,91.81l8.67-2.28,7.76,14.15c21,34.01,34.92,25.11,34.92,25.11,4.11,15.98,0,23.97,0,23.97,0,0-10.27-10.5-29.9-23.74-19.63-13.24-44.51-15.52-44.51-15.52l2.51-8.22c13.01,2.28,31.5,7.76,31.5,7.76-6.62-7.53-10.96-21.23-10.96-21.23Zm27.35,8.88c-12.52-1.73-8.59-16.99-8.59-16.99,0,0,.48-6.01,11.13-20.31,0,0-1.85,8.95,2.45,16.07,1.89,3.13,4.66,5.6,4.68,9.72.04,6.32-4.33,12.24-9.67,11.51Zm-11.51-82.56s.64-8,14.8-27.02c0,0-2.46,11.9,3.26,21.38,2.52,4.17,6.2,7.45,6.23,12.93.05,8.41-5.76,16.28-12.86,15.3-16.65-2.3-11.43-22.6-11.43-22.6Zm-24,29.41s.68-10.16,14.95-34.25c0,0-2.53,15.11,3.14,27.2,2.49,5.32,6.15,9.52,6.15,16.49,0,10.69-5.85,20.66-12.94,19.36-16.64-3.04-11.3-28.81-11.3-28.81Zm-30.89,9.98s.64-8,14.8-27.02c0,0-2.46,11.9,3.26,21.38,2.52,4.17,6.2,7.45,6.23,12.93.05,8.41-5.76,16.28-12.86,15.3-16.65-2.3-11.43-22.6-11.43-22.6Zm-16.97,40.97s-1.91-6.55,5.29-26.83c0,0,1.44,10.31,9.72,15.69,3.64,2.36,8.09,3.6,9.84,7.92,2.68,6.63-.25,15-7.15,16.85-16.19,4.35-17.69-13.62-17.69-13.62Zm39.47,50.26c-11.67,10.92-21.71-3.97-21.71-3.97,0,0-4.82-4.83-8.57-25.57,0,0,6.25,8.29,15.92,9.28,4.25.43,8.64-.47,12.23,2.5,5.51,4.55,7.09,13.1,2.12,17.76Zm68.52,34.7c-22.37-33.33-60.95-50.67-60.95-50.67l3.65-7.3c34.47,8.22,60.03,38.27,60.03,38.27,5.71-10.27,2.28-27.47,2.28-27.47-1.37-21.15-21.68-60.79-21.68-60.79l7.08-2.74c29.45,46.11,29.67,70.76,29.67,70.76-15.75,18.26-20.09,39.95-20.09,39.95Zm40.14-54.85l-11.3,10.27c-5.93-29.67-22.37-54.78-22.37-54.78l7.76-3.88c13.24,22.37,14.61,30.82,14.61,30.82.68-12.33,5.02-17.35,5.02-17.35l8.45,4.11c-10.5,26.93-2.17,30.82-2.17,30.82Zm2.17-62.6c-.09.13-.17.25-.26.38-5.1,7.22-16.24.87-12.64-7.2,1.5-3.37,3.28-7.67,5.21-13,5.76-15.89-7.09-42.2-19.06-57.71-11.97-15.52,11.97-27.93,11.97-27.93-3.4,19.42,2.08,32.07,19.63,33.7,24.78,2.3,14.06,11.97,2.98,24.02s.89,34.94-7.82,47.75Zm17.69,30.83c-7.1,1.11-12.9-7.77-12.85-17.27.04-6.19,3.72-9.9,6.24-14.61,5.73-10.71,3.28-24.14,3.28-24.14,14.15,21.47,14.78,30.5,14.78,30.5,0,0,5.2,22.92-11.45,25.53Zm15.84-51.52c-7.76,1.07-14.1-7.53-14.05-16.72.03-5.99,4.06-9.58,6.81-14.13,6.25-10.35,3.56-23.36,3.56-23.36,15.47,20.78,16.17,29.52,16.17,29.52,0,0,5.7,22.18-12.49,24.69Zm11.8,75.29s8.67-1.22,12.48-1.22l1.07,7.46s-26.78,2.43-37.59,7.15c0,0,18.57-16.13,26.93-28.3l8.37-12.17h6.85s-10.04,19.17-18.11,27.09Zm45.02,14.45s-5.77,16.63-18.49,10.51c-5.43-2.61-5.83-10.81-1.9-16.68,2.57-3.82,6.67-4.41,10.36-6.16,8.4-3.98,12.2-13.45,12.2-13.45,1.09,19.89-2.18,25.78-2.18,25.78Zm7.18-49s-.98,20.94-17.57,18.24c-7.08-1.15-10.31-10.38-7.79-18.41,1.64-5.23,6.13-7.29,9.76-10.53,8.25-7.38,9.4-19.48,9.4-19.48,7.94,22.35,6.2,30.18,6.2,30.18Z"></path>
    <path d="m549.13,709.82l16.9,4.99c4.11-2.17,8.75-4.7,13.77-7.58l-12.54-3.59c-7.94-2.28-16.05-3.93-24.25-4.95l-17.7-2.21-41.92.65c7.32,4.63,14.29,8.72,20.55,12.23,14.95-1.59,30.31-1.45,45.17.46Z"></path>
    <path d="m543.02,715.97l-17.7-1.27-11.37.1c11.15,5.89,18.35,9.09,18.35,9.09,0,0,3.85,1.81,7.69,3.61,3.85-1.81,7.69-3.61,7.69-3.61,0,0,4.79-2.13,12.6-6.1-5.7-.78-11.46-1.39-17.27-1.81Z"></path>
  </g>
</svg>